<mxfile host="Electron" agent="Mozilla/5.0 (Windows NT 10.0; Win64; x64) AppleWebKit/537.36 (KHTML, like Gecko) draw.io/26.1.1 Chrome/132.0.6834.210 Electron/34.3.3 Safari/537.36" version="26.1.1">
  <diagram name="PÃ¡gina-1" id="ey1lMVNFjt7Abwad8ZmU">
    <mxGraphModel dx="2629" dy="1037" grid="1" gridSize="10" guides="1" tooltips="1" connect="1" arrows="1" fold="1" page="1" pageScale="1" pageWidth="827" pageHeight="1169" math="0" shadow="0">
      <root>
        <mxCell id="0" />
        <mxCell id="1" parent="0" />
        <mxCell id="1MytAwqm8tGKz5-woVN_-25" value="" style="rounded=1;whiteSpace=wrap;html=1;" vertex="1" parent="1">
          <mxGeometry x="-210" y="270" width="1020" height="580" as="geometry" />
        </mxCell>
        <mxCell id="1MytAwqm8tGKz5-woVN_-1" value="" style="rounded=0;whiteSpace=wrap;html=1;" vertex="1" parent="1">
          <mxGeometry x="20" y="350" width="700" height="390" as="geometry" />
        </mxCell>
        <mxCell id="1MytAwqm8tGKz5-woVN_-7" value="" style="rounded=0;whiteSpace=wrap;html=1;shadow=0;" vertex="1" parent="1">
          <mxGeometry x="130" y="410" width="150" height="130" as="geometry" />
        </mxCell>
        <mxCell id="1MytAwqm8tGKz5-woVN_-4" value="Azure Container Registry" style="image;aspect=fixed;html=1;points=[];align=center;fontSize=12;image=img/lib/azure2/containers/Container_Registries.svg;" vertex="1" parent="1">
          <mxGeometry x="535" y="380" width="78" height="69.97" as="geometry" />
        </mxCell>
        <mxCell id="1MytAwqm8tGKz5-woVN_-15" style="edgeStyle=orthogonalEdgeStyle;rounded=0;orthogonalLoop=1;jettySize=auto;html=1;exitX=1;exitY=0.5;exitDx=0;exitDy=0;exitPerimeter=0;" edge="1" parent="1" source="1MytAwqm8tGKz5-woVN_-5" target="1MytAwqm8tGKz5-woVN_-9">
          <mxGeometry relative="1" as="geometry" />
        </mxCell>
        <mxCell id="1MytAwqm8tGKz5-woVN_-18" style="edgeStyle=orthogonalEdgeStyle;rounded=0;orthogonalLoop=1;jettySize=auto;html=1;exitX=0.5;exitY=1;exitDx=0;exitDy=0;exitPerimeter=0;" edge="1" parent="1" source="1MytAwqm8tGKz5-woVN_-5" target="1MytAwqm8tGKz5-woVN_-12">
          <mxGeometry relative="1" as="geometry">
            <Array as="points">
              <mxPoint x="225" y="670" />
            </Array>
          </mxGeometry>
        </mxCell>
        <mxCell id="1MytAwqm8tGKz5-woVN_-5" value="webapp" style="verticalLabelPosition=bottom;html=1;verticalAlign=top;align=center;strokeColor=none;fillColor=#00BEF2;shape=mxgraph.azure.azure_website;pointerEvents=1;" vertex="1" parent="1">
          <mxGeometry x="200" y="470" width="50" height="50" as="geometry" />
        </mxCell>
        <mxCell id="1MytAwqm8tGKz5-woVN_-6" value="AppService Plan" style="image;aspect=fixed;html=1;points=[];align=center;fontSize=12;image=img/lib/azure2/app_services/App_Service_Plans.svg;" vertex="1" parent="1">
          <mxGeometry x="110" y="390" width="50" height="50" as="geometry" />
        </mxCell>
        <mxCell id="1MytAwqm8tGKz5-woVN_-9" value="CosmosDB" style="image;aspect=fixed;html=1;points=[];align=center;fontSize=12;image=img/lib/azure2/databases/Azure_Cosmos_DB.svg;" vertex="1" parent="1">
          <mxGeometry x="532" y="503" width="84" height="84" as="geometry" />
        </mxCell>
        <mxCell id="1MytAwqm8tGKz5-woVN_-12" value="Azure OpenAI&lt;div&gt;&lt;br&gt;&lt;/div&gt;" style="image;aspect=fixed;html=1;points=[];align=center;fontSize=12;image=img/lib/azure2/ai_machine_learning/Azure_OpenAI.svg;" vertex="1" parent="1">
          <mxGeometry x="540" y="630" width="68" height="68" as="geometry" />
        </mxCell>
        <mxCell id="1MytAwqm8tGKz5-woVN_-17" style="edgeStyle=orthogonalEdgeStyle;rounded=0;orthogonalLoop=1;jettySize=auto;html=1;entryX=0.5;entryY=0;entryDx=0;entryDy=0;entryPerimeter=0;" edge="1" parent="1" source="1MytAwqm8tGKz5-woVN_-4" target="1MytAwqm8tGKz5-woVN_-5">
          <mxGeometry relative="1" as="geometry" />
        </mxCell>
        <mxCell id="1MytAwqm8tGKz5-woVN_-21" value="usuarios" style="image;aspect=fixed;html=1;points=[];align=center;fontSize=12;image=img/lib/azure2/azure_stack/User_Subscriptions.svg;" vertex="1" parent="1">
          <mxGeometry x="-150" y="500.41" width="89.21" height="86.59" as="geometry" />
        </mxCell>
        <mxCell id="1MytAwqm8tGKz5-woVN_-22" style="edgeStyle=orthogonalEdgeStyle;rounded=0;orthogonalLoop=1;jettySize=auto;html=1;entryX=-0.004;entryY=0.712;entryDx=0;entryDy=0;entryPerimeter=0;" edge="1" parent="1" source="1MytAwqm8tGKz5-woVN_-21" target="1MytAwqm8tGKz5-woVN_-5">
          <mxGeometry relative="1" as="geometry" />
        </mxCell>
        <mxCell id="1MytAwqm8tGKz5-woVN_-23" value="" style="shape=image;verticalLabelPosition=bottom;labelBackgroundColor=default;verticalAlign=top;aspect=fixed;imageAspect=0;image=https://upload.wikimedia.org/wikipedia/commons/thumb/f/fa/Microsoft_Azure.svg/1024px-Microsoft_Azure.svg.png;" vertex="1" parent="1">
          <mxGeometry x="636" y="306" width="84" height="84" as="geometry" />
        </mxCell>
      </root>
    </mxGraphModel>
  </diagram>
</mxfile>
